<?xml version="1.0" encoding="UTF-8" standalone="no"?>
<!-- Created with Inkscape (http://www.inkscape.org/) -->

<svg
   width="210mm"
   height="297mm"
   viewBox="0 0 210 297"
   version="1.1"
   id="svg1"
   inkscape:version="1.4.2 (f4327f4, 2025-05-13)"
   sodipodi:docname="cyclist_green.svg"
   xmlns:inkscape="http://www.inkscape.org/namespaces/inkscape"
   xmlns:sodipodi="http://sodipodi.sourceforge.net/DTD/sodipodi-0.dtd"
   xmlns="http://www.w3.org/2000/svg"
   xmlns:svg="http://www.w3.org/2000/svg">
  <sodipodi:namedview
     id="namedview1"
     pagecolor="#ffffff"
     bordercolor="#000000"
     borderopacity="0.25"
     inkscape:showpageshadow="2"
     inkscape:pageopacity="0.0"
     inkscape:pagecheckerboard="0"
     inkscape:deskcolor="#d1d1d1"
     inkscape:document-units="mm"
     inkscape:zoom="1.0592242"
     inkscape:cx="396.98867"
     inkscape:cy="561.25984"
     inkscape:window-width="2560"
     inkscape:window-height="1369"
     inkscape:window-x="3832"
     inkscape:window-y="-8"
     inkscape:window-maximized="1"
     inkscape:current-layer="layer1" />
  <defs
     id="defs1">
    <clipPath
       clipPathUnits="userSpaceOnUse"
       id="clipPath272-1-4-8">
      <path
         d="M 0,0 H 385.11258 V 512.13873 H 0 Z"
         transform="matrix(1,0,0,-1,-2.1441009e-7,512.13874)"
         id="path272-4-8-5" />
    </clipPath>
    <clipPath
       clipPathUnits="userSpaceOnUse"
       id="clipPath273-82-8-7">
      <path
         d="M 0,0 H 385.11258 V 512.13873 H 0 Z"
         transform="matrix(1,0,0,-1,-2.1441009e-7,512.13874)"
         id="path273-05-2-6" />
    </clipPath>
    <clipPath
       clipPathUnits="userSpaceOnUse"
       id="clipPath274-5-4-1">
      <path
         d="M 0,0 H 385.11258 V 512.13873 H 0 Z"
         transform="matrix(1,0,0,-1,-2.1441009e-7,512.13874)"
         id="path274-9-5-8" />
    </clipPath>
    <clipPath
       clipPathUnits="userSpaceOnUse"
       id="clipPath275-3-5-9">
      <path
         d="M 0,0 H 385.11258 V 512.13873 H 0 Z"
         transform="matrix(1,0,0,-1,-2.1441009e-7,512.13874)"
         id="path275-2-1-2" />
    </clipPath>
    <clipPath
       clipPathUnits="userSpaceOnUse"
       id="clipPath276-8-7-7">
      <path
         d="M 0,0 H 385.11258 V 512.13873 H 0 Z"
         transform="matrix(1,0,0,-1,-2.1441009e-7,512.13874)"
         id="path276-7-1-9" />
    </clipPath>
    <clipPath
       clipPathUnits="userSpaceOnUse"
       id="clipPath277-48-1-5">
      <path
         d="M 0,0 H 385.11258 V 512.13873 H 0 Z"
         transform="matrix(1,0,0,-1,-2.1441009e-7,512.13874)"
         id="path277-1-5-4" />
    </clipPath>
  </defs>
  <g
     inkscape:label="Ebene 1"
     inkscape:groupmode="layer"
     id="layer1">
    <g
       id="g6"
       inkscape:export-filename="C:\Users\denk\Syncthing\thi\Software\equgat_algorithm_implementation\input\cyclist_green.png"
       inkscape:export-xdpi="600"
       inkscape:export-ydpi="600"
       transform="matrix(1.3334249,0,0,1.3334249,-63.11468,-389.19537)">
      <g
         id="g5-2"
         transform="translate(0.11686792,4.0219738)">
        <path
           d="m 6.773,139.797 c 0,0.773 0.629,1.398 1.403,1.398 0.769,0 1.398,-0.625 1.398,-1.398 0,-0.774 -0.629,-1.402 -1.398,-1.402 -0.774,0 -1.403,0.628 -1.403,1.402 z"
           style="fill:none;stroke:#26a269;stroke-width:0.34789;stroke-linecap:round;stroke-linejoin:round;stroke-miterlimit:10;stroke-dasharray:none;stroke-opacity:1"
           transform="matrix(1.5546533,0,0,1.5546533,97.510667,137.23248)"
           clip-path="url(#clipPath272-1-4-8)"
           id="path537-3-1-3" />
        <path
           d="m 1.773,139.77 c 0,0.773 0.625,1.402 1.399,1.402 0.773,0 1.402,-0.629 1.402,-1.402 0,-0.774 -0.629,-1.399 -1.402,-1.399 -0.774,0 -1.399,0.625 -1.399,1.399 z"
           style="fill:none;stroke:#26a269;stroke-width:0.34789;stroke-linecap:round;stroke-linejoin:round;stroke-miterlimit:10;stroke-dasharray:none;stroke-opacity:1"
           transform="matrix(1.5546533,0,0,1.5546533,97.510667,137.23248)"
           clip-path="url(#clipPath273-82-8-7)"
           id="path538-9-4-3" />
        <path
           d="m 6.309,136.375 c 1.152,0.008 0.957,-0.121 1.578,1.871 0.504,1.594 0.449,1.422 0.453,1.531 0,0.086 -0.07,0.157 -0.156,0.164 -0.184,-0.019 -0.106,0.02 -0.743,-1.953 -2.32,2.446 -1.449,2.051 -2.695,2.102 -1.641,-0.016 -1.777,0.082 -1.797,-0.156 0.004,-0.082 0.043,-0.129 1.168,-2.637 L 4.008,137 3.637,136.992 3.652,136.684 h 1.383 c 0.121,0.168 -0.051,0.164 -0.668,0.304 l 0.106,0.301 2.757,0.008 c -0.183,-0.649 -0.078,-0.609 -0.914,-0.606 z m 1.003,1.254 -2.699,-0.004 0.782,2.094 z m -3.023,0.125 0.766,2.008 -1.676,0.008 z"
           style="fill:#26a269;fill-opacity:1;fill-rule:evenodd;stroke:#26a269;stroke-width:0.168691;stroke-linecap:round;stroke-linejoin:round;stroke-miterlimit:10;stroke-dasharray:none;stroke-opacity:1"
           transform="matrix(1.5546533,0,0,1.5546533,97.510667,137.23248)"
           clip-path="url(#clipPath274-5-4-1)"
           id="path539-5-2-4" />
        <path
           d="m 5.453,132.816 c -0.086,0.325 0.106,0.657 0.43,0.743 0.324,0.086 0.656,-0.106 0.742,-0.43 0.09,-0.324 -0.105,-0.656 -0.43,-0.742 -0.32,-0.086 -0.656,0.105 -0.742,0.429 z"
           style="fill:#26a269;fill-opacity:1;fill-rule:nonzero;stroke:none"
           transform="matrix(1.5546533,0,0,1.5546533,97.510667,137.23248)"
           clip-path="url(#clipPath275-3-5-9)"
           id="path540-1-3-1" />
        <path
           d="m 6.875,136.812 c -0.926,-2.906 -0.754,-2.933 -1.344,-3.113 -0.562,-0.019 -0.769,0.383 -0.859,0.817 l -0.445,1.664 1.175,0.304 0.364,-1.316 c 0.566,1.746 0.527,1.644 1.109,1.644 z"
           style="fill:#26a269;fill-opacity:1;fill-rule:nonzero;stroke:none"
           transform="matrix(1.5546533,0,0,1.5546533,97.510667,137.23248)"
           clip-path="url(#clipPath276-8-7-7)"
           id="path541-3-2-1" />
        <path
           d="m 5.332,136.656 -1.141,-0.304 c 0.102,0.23 0.258,0.3 0.524,0.476 0.723,3.297 0.558,3.16 1.398,3.324 l -0.41,-1.769 C 5.336,136.91 5.301,136.898 5.332,136.656 Z"
           style="fill:#26a269;fill-opacity:1;fill-rule:nonzero;stroke:none"
           transform="matrix(1.5546533,0,0,1.5546533,97.510667,137.23248)"
           clip-path="url(#clipPath277-48-1-5)"
           id="path542-6-2-3" />
      </g>
    </g>
  </g>
</svg>
